# Blender v2.90.1 OBJ File: ''
# www.blender.org
mtllib Bucket.mtl
o Circle
v 0.000000 0.000000 -0.200000
v -0.141421 0.000000 -0.141421
v -0.200000 0.000000 0.000000
v -0.141421 0.000000 0.141421
v 0.000000 0.000000 0.200000
v 0.141421 0.000000 0.141421
v 0.200000 0.000000 -0.000000
v 0.141421 0.000000 -0.141421
v 0.000000 0.026375 -0.178418
v -0.126161 0.026375 -0.126161
v -0.178418 0.026375 0.000000
v -0.126161 0.026375 0.126161
v 0.000000 0.026375 0.178418
v 0.126161 0.026375 0.126161
v 0.178418 0.026375 -0.000000
v 0.126161 0.026375 -0.126161
v -0.000000 0.256627 -0.250821
v -0.177358 0.256627 -0.177358
v -0.250821 0.256627 0.000000
v -0.177358 0.256627 0.177358
v 0.000000 0.256627 0.250821
v 0.177358 0.256627 0.177357
v 0.250821 0.256627 -0.000000
v 0.177358 0.256627 -0.177357
v -0.000000 0.258317 -0.228378
v -0.161487 0.258317 -0.161487
v -0.228378 0.258317 0.000000
v -0.161487 0.258317 0.161487
v 0.000000 0.258317 0.228378
v 0.161487 0.258317 0.161487
v 0.228378 0.258317 -0.000000
v 0.161487 0.258317 -0.161487
v -0.000000 0.363777 -0.250821
v -0.177358 0.363777 -0.177358
v -0.250821 0.363777 0.000000
v -0.177358 0.363777 0.177358
v 0.000000 0.363777 0.250821
v 0.177358 0.363777 0.177357
v 0.250821 0.363777 -0.000000
v 0.177358 0.363777 -0.177357
v -0.000000 0.363302 -0.224889
v -0.159020 0.363302 -0.159020
v -0.224889 0.363302 0.000000
v -0.159020 0.363302 0.159020
v 0.000000 0.363302 0.224889
v 0.159020 0.363302 0.159020
v 0.224889 0.363302 -0.000000
v 0.159020 0.363302 -0.159020
v -0.213613 0.143324 0.000000
v -0.151047 0.143324 0.151047
v 0.000000 0.143324 0.213613
v 0.151047 0.143324 0.151047
v 0.213613 0.143324 -0.000000
v 0.151047 0.143324 -0.151047
v -0.000000 0.143324 -0.213613
v -0.151047 0.143324 -0.151047
v -0.167412 0.128432 0.167412
v 0.000000 0.128432 0.236757
v 0.167412 0.128432 0.167412
v 0.236757 0.128432 -0.000000
v 0.167412 0.128432 -0.167412
v -0.000000 0.128432 -0.236757
v -0.167412 0.128432 -0.167412
v -0.236757 0.128432 0.000000
v 0.000000 0.235296 0.248481
v 0.175703 0.235296 0.175703
v 0.248481 0.235296 -0.000000
v 0.175703 0.235296 -0.175703
v -0.000000 0.235296 -0.248481
v -0.175703 0.235296 -0.175703
v -0.248481 0.235296 0.000000
v -0.175703 0.235296 0.175703
v -0.185918 0.257142 -0.185918
v -0.000000 0.257142 -0.262927
v -0.262927 0.257142 0.000000
v -0.185918 0.257142 0.185918
v 0.000000 0.257142 0.262927
v 0.185918 0.257142 0.185918
v 0.262927 0.257142 -0.000000
v 0.185918 0.257142 -0.185918
v 0.000000 0.234782 0.260474
v 0.184183 0.234782 0.184183
v 0.260474 0.234782 -0.000000
v 0.184183 0.234782 -0.184183
v -0.000000 0.234782 -0.260474
v -0.184183 0.234782 -0.184183
v -0.260474 0.234782 0.000000
v -0.184183 0.234782 0.184183
vt 0.000000 0.000000
vt 0.000000 0.000000
vt 0.000000 0.000000
vt 0.000000 0.000000
vt 0.000000 0.000000
vt 0.000000 0.000000
vt 0.000000 0.000000
vt 0.000000 0.000000
vt 0.000000 0.000000
vt 0.000000 0.000000
vt 0.000000 0.000000
vt 0.000000 0.000000
vt 0.000000 0.000000
vt 0.000000 0.000000
vt 0.000000 0.000000
vt 0.000000 0.000000
vt 0.000000 0.000000
vt 0.000000 0.000000
vt 0.000000 0.000000
vt 0.000000 0.000000
vt 0.000000 0.000000
vt 0.000000 0.000000
vt 0.000000 0.000000
vt 0.000000 0.000000
vt 0.000000 0.000000
vt 0.000000 0.000000
vt 0.000000 0.000000
vt 0.000000 0.000000
vt 0.000000 0.000000
vt 0.000000 0.000000
vt 0.000000 0.000000
vt 0.000000 0.000000
vt 0.000000 0.000000
vt 0.000000 0.000000
vt 0.000000 0.000000
vt 0.000000 0.000000
vt 0.000000 0.000000
vt 0.000000 0.000000
vt 0.000000 0.000000
vt 0.000000 0.000000
vt 0.000000 0.000000
vt 0.000000 0.000000
vt 0.000000 0.000000
vt 0.000000 0.000000
vt 0.000000 0.000000
vt 0.000000 0.000000
vt 0.000000 0.000000
vt 0.000000 0.000000
vt 0.000000 0.000000
vt 0.000000 0.000000
vt 0.000000 0.000000
vt 0.000000 0.000000
vt 0.000000 0.000000
vt 0.000000 0.000000
vt 0.000000 0.000000
vt 0.000000 0.000000
vt 0.000000 0.000000
vt 0.000000 0.000000
vt 0.000000 0.000000
vt 0.000000 0.000000
vt 0.000000 0.000000
vt 0.000000 0.000000
vt 0.000000 0.000000
vt 0.000000 0.000000
vt 0.000000 0.000000
vt 0.000000 0.000000
vt 0.000000 0.000000
vt 0.000000 0.000000
vt 0.000000 0.000000
vt 0.000000 0.000000
vt 0.000000 0.000000
vt 0.000000 0.000000
vt 0.000000 0.000000
vt 0.000000 0.000000
vt 0.000000 0.000000
vt 0.000000 0.000000
vt 0.000000 0.000000
vt 0.000000 0.000000
vt 0.000000 0.000000
vt 0.000000 0.000000
vt 0.000000 0.000000
vt 0.000000 0.000000
vt 0.000000 0.000000
vt 0.000000 0.000000
vt 0.000000 0.000000
vt 0.000000 0.000000
vt 0.000000 0.000000
vt 0.000000 0.000000
vn 0.9174 0.1178 -0.3800
vn 0.3800 0.1178 -0.9174
vn -0.3800 0.1178 -0.9174
vn -0.9174 0.1178 -0.3800
vn -0.9174 0.1178 0.3800
vn -0.3800 0.1178 0.9174
vn 0.3800 0.1178 0.9174
vn 0.9174 0.1178 0.3800
vn -0.3827 0.0000 0.9239
vn 0.3825 -0.0307 -0.9234
vn 0.3827 0.0000 0.9239
vn -0.3825 -0.0307 -0.9234
vn 0.9239 0.0000 0.3827
vn -0.9234 -0.0307 -0.3825
vn 0.9239 0.0000 -0.3827
vn -0.9234 -0.0307 0.3825
vn 0.3827 0.0000 -0.9239
vn -0.3827 0.0000 -0.9239
vn -0.3825 -0.0307 0.9234
vn 0.3825 -0.0307 0.9234
vn -0.9239 0.0000 -0.3827
vn 0.9234 -0.0307 0.3825
vn -0.9239 0.0000 0.3827
vn 0.9234 -0.0307 -0.3825
vn -0.0183 0.9998 -0.0076
vn -0.0183 0.9998 0.0076
vn -0.0076 0.9998 0.0183
vn 0.0076 0.9998 0.0183
vn 0.0183 0.9998 0.0076
vn 0.0183 0.9998 -0.0076
vn 0.0076 0.9998 -0.0183
vn -0.0076 0.9998 -0.0183
vn 0.0000 1.0000 0.0000
vn 0.0000 -1.0000 0.0000
vn 0.8901 0.2679 0.3687
vn 0.3687 0.2679 0.8901
vn -0.3687 0.2679 0.8901
vn -0.8901 0.2679 0.3687
vn -0.8901 0.2679 -0.3687
vn -0.3687 0.2679 -0.8901
vn 0.3687 0.2679 -0.8901
vn 0.8901 0.2679 -0.3687
vn -0.8932 -0.2556 0.3700
vn -0.8932 -0.2556 -0.3700
vn -0.3700 -0.2556 -0.8932
vn 0.3700 -0.2556 -0.8932
vn 0.8932 -0.2556 -0.3700
vn 0.8932 -0.2556 0.3700
vn 0.3700 -0.2556 0.8932
vn -0.3700 -0.2556 0.8932
vn -0.9192 -0.1008 0.3807
vn -0.9192 -0.1008 -0.3807
vn -0.3807 -0.1008 -0.9192
vn 0.3807 -0.1008 -0.9192
vn 0.9192 -0.1008 -0.3807
vn 0.9192 -0.1008 0.3807
vn 0.3807 -0.1008 0.9192
vn -0.3807 -0.1008 0.9192
vn 0.0178 -0.9989 -0.0429
vn 0.0176 0.9989 0.0425
vn -0.0176 0.9989 0.0425
vn -0.0178 -0.9989 -0.0429
vn -0.0425 0.9989 0.0176
vn -0.0429 -0.9989 -0.0178
vn -0.0429 -0.9989 0.0178
vn -0.0425 0.9989 -0.0176
vn 0.0429 -0.9989 -0.0178
vn 0.0425 0.9989 0.0176
vn 0.0425 0.9989 -0.0176
vn 0.0429 -0.9989 0.0178
vn 0.0176 0.9989 -0.0425
vn 0.0178 -0.9989 0.0429
vn -0.0178 -0.9989 0.0429
vn -0.0176 0.9989 -0.0425
usemtl BrownDark
s off
f 49/1/1 27/2/1 28/3/1 50/4/1
f 50/4/2 28/3/2 29/5/2 51/6/2
f 51/6/3 29/5/3 30/7/3 52/8/3
f 52/8/4 30/7/4 31/9/4 53/10/4
f 53/10/5 31/9/5 32/11/5 54/12/5
f 54/12/6 32/11/6 25/13/6 55/14/6
f 55/14/7 25/13/7 26/15/7 56/16/7
f 56/16/8 26/15/8 27/2/8 49/1/8
f 20/17/9 21/18/9 37/19/9 36/20/9
f 28/3/10 44/21/10 45/22/10 29/5/10
f 21/18/11 22/23/11 38/24/11 37/19/11
f 29/5/12 45/22/12 46/25/12 30/7/12
f 22/23/13 23/26/13 39/27/13 38/24/13
f 30/7/14 46/25/14 47/28/14 31/9/14
f 23/26/15 24/29/15 40/30/15 39/27/15
f 31/9/16 47/28/16 48/31/16 32/11/16
f 24/29/17 17/32/17 33/33/17 40/30/17
f 17/32/18 18/34/18 34/35/18 33/33/18
f 32/11/19 48/31/19 41/36/19 25/13/19
f 25/13/20 41/36/20 42/37/20 26/15/20
f 18/34/21 19/38/21 35/39/21 34/35/21
f 26/15/22 42/37/22 43/40/22 27/2/22
f 19/38/23 20/17/23 36/20/23 35/39/23
f 27/2/24 43/40/24 44/21/24 28/3/24
f 38/24/25 39/27/25 47/28/25 46/25/25
f 39/27/26 40/30/26 48/31/26 47/28/26
f 40/30/27 33/33/27 41/36/27 48/31/27
f 33/33/28 34/35/28 42/37/28 41/36/28
f 34/35/29 35/39/29 43/40/29 42/37/29
f 35/39/30 36/20/30 44/21/30 43/40/30
f 36/20/31 37/19/31 45/22/31 44/21/31
f 37/19/32 38/24/32 46/25/32 45/22/32
f 10/41/33 11/42/33 12/43/33 13/44/33 14/45/33 15/46/33 16/47/33 9/48/33
f 2/49/34 1/50/34 8/51/34 7/52/34 6/53/34 5/54/34 4/55/34 3/56/34
f 10/41/35 56/16/35 49/1/35 11/42/35
f 9/48/36 55/14/36 56/16/36 10/41/36
f 16/47/37 54/12/37 55/14/37 9/48/37
f 15/46/38 53/10/38 54/12/38 16/47/38
f 14/45/39 52/8/39 53/10/39 15/46/39
f 13/44/40 51/6/40 52/8/40 14/45/40
f 12/43/41 50/4/41 51/6/41 13/44/41
f 11/42/42 49/1/42 50/4/42 12/43/42
f 3/56/43 4/55/43 57/57/43 64/58/43
f 2/49/44 3/56/44 64/58/44 63/59/44
f 1/50/45 2/49/45 63/59/45 62/60/45
f 8/51/46 1/50/46 62/60/46 61/61/46
f 7/52/47 8/51/47 61/61/47 60/62/47
f 6/53/48 7/52/48 60/62/48 59/63/48
f 5/54/49 6/53/49 59/63/49 58/64/49
f 4/55/50 5/54/50 58/64/50 57/57/50
f 64/58/51 57/57/51 72/65/51 71/66/51
f 63/59/52 64/58/52 71/66/52 70/67/52
f 62/60/53 63/59/53 70/67/53 69/68/53
f 61/61/54 62/60/54 69/68/54 68/69/54
f 60/62/55 61/61/55 68/69/55 67/70/55
f 59/63/56 60/62/56 67/70/56 66/71/56
f 58/64/57 59/63/57 66/71/57 65/72/57
f 57/57/58 58/64/58 65/72/58 72/65/58
usemtl Gray
f 72/65/59 65/72/59 81/73/59 88/74/59
f 18/34/60 17/32/60 74/75/60 73/76/60
f 17/32/61 24/29/61 80/77/61 74/75/61
f 65/72/62 66/71/62 82/78/62 81/73/62
f 24/29/63 23/26/63 79/79/63 80/77/63
f 66/71/64 67/70/64 83/80/64 82/78/64
f 67/70/65 68/69/65 84/81/65 83/80/65
f 23/26/66 22/23/66 78/82/66 79/79/66
f 88/74/58 81/73/58 77/83/58 76/84/58
f 81/73/57 82/78/57 78/82/57 77/83/57
f 82/78/56 83/80/56 79/79/56 78/82/56
f 83/80/55 84/81/55 80/77/55 79/79/55
f 84/81/54 85/85/54 74/75/54 80/77/54
f 85/85/53 86/86/53 73/76/53 74/75/53
f 86/86/52 87/87/52 75/88/52 73/76/52
f 87/87/51 88/74/51 76/84/51 75/88/51
f 71/66/67 72/65/67 88/74/67 87/87/67
f 19/38/68 18/34/68 73/76/68 75/88/68
f 20/17/69 19/38/69 75/88/69 76/84/69
f 70/67/70 71/66/70 87/87/70 86/86/70
f 21/18/71 20/17/71 76/84/71 77/83/71
f 69/68/72 70/67/72 86/86/72 85/85/72
f 68/69/73 69/68/73 85/85/73 84/81/73
f 22/23/74 21/18/74 77/83/74 78/82/74
o Circle.001
v 0.007799 0.279397 -0.259140
v -0.169237 0.317611 -0.195497
v 0.253291 0.311789 -0.005157
v 0.182816 0.276986 -0.180299
v 0.248376 0.291514 -0.000132
v 0.178559 0.257036 -0.173640
v 0.005175 0.259424 -0.251746
v -0.170209 0.297281 -0.188696
v -0.177553 0.317001 -0.204289
v 0.008028 0.276943 -0.271004
v 0.265368 0.310899 -0.004762
v 0.191492 0.274415 -0.188357
v 0.260217 0.289645 0.000505
v 0.187030 0.253502 -0.181377
v 0.005278 0.256006 -0.263252
v -0.178572 0.295690 -0.197160
v -0.215638 0.346549 -0.094321
v -0.216259 0.325979 -0.088308
v -0.225773 0.347185 -0.099038
v -0.226423 0.325622 -0.092735
v 0.206889 0.340728 0.096019
v 0.202326 0.320212 0.100256
v 0.217148 0.341083 0.100488
v 0.212365 0.319577 0.104930
vt 0.000000 0.000000
vt 0.000000 0.000000
vt 0.000000 0.000000
vt 0.000000 0.000000
vt 0.000000 0.000000
vt 0.000000 0.000000
vt 0.000000 0.000000
vt 0.000000 0.000000
vt 0.000000 0.000000
vt 0.000000 0.000000
vt 0.000000 0.000000
vt 0.000000 0.000000
vt 0.000000 0.000000
vt 0.000000 0.000000
vt 0.000000 0.000000
vt 0.000000 0.000000
vt 0.000000 0.000000
vt 0.000000 0.000000
vt 0.000000 0.000000
vt 0.000000 0.000000
vt 0.000000 0.000000
vt 0.000000 0.000000
vt 0.000000 0.000000
vt 0.000000 0.000000
vn 0.1383 0.9704 -0.1981
vn 0.1033 0.9744 -0.1996
vn 0.0790 0.9712 -0.2248
vn -0.1599 -0.9660 0.2032
vn -0.1642 -0.9528 0.2554
vn 0.8918 -0.1074 0.4394
vn 0.9053 -0.2952 -0.3056
vn 0.3783 -0.3647 -0.8508
vn -0.3775 -0.2775 -0.8835
vn 0.1528 0.9664 -0.2068
vn -0.1043 -0.9536 0.2823
vn -0.1396 -0.9496 0.2808
vn -0.0690 -0.9670 0.2452
vn -0.9149 -0.0878 -0.3940
vn 0.0759 0.9672 -0.2422
vn -0.3783 0.3647 0.8508
vn -0.9053 0.2952 0.3056
vn -0.8917 0.1073 -0.4397
vn -0.3925 0.2690 0.8795
vn 0.9147 0.0879 0.3944
vn 0.3775 0.2775 0.8835
usemtl Gray
s off
f 90/89/75 89/90/75 98/91/75 97/92/75
f 89/90/76 92/93/76 100/94/76 98/91/76
f 92/93/77 91/95/77 99/96/77 100/94/77
f 110/97/78 93/98/78 101/99/78 112/100/78
f 93/98/79 94/101/79 102/102/79 101/99/79
f 112/100/80 101/99/80 99/96/80 111/103/80
f 101/99/81 102/102/81 100/94/81 99/96/81
f 102/102/82 103/104/82 98/91/82 100/94/82
f 103/104/83 104/105/83 97/92/83 98/91/83
f 105/106/84 90/89/84 97/92/84 107/107/84
f 95/108/85 96/109/85 104/105/85 103/104/85
f 94/101/86 95/108/86 103/104/86 102/102/86
f 96/109/87 106/110/87 108/111/87 104/105/87
f 104/105/88 108/111/88 107/107/88 97/92/88
f 91/95/89 109/112/89 111/103/89 99/96/89
f 92/93/90 89/90/90 95/108/90 94/101/90
f 91/95/91 92/93/91 94/101/91 93/98/91
f 109/112/92 91/95/92 93/98/92 110/97/92
f 112/100/93 111/103/93 109/112/93 110/97/93
f 90/89/94 105/106/94 106/110/94 96/109/94
f 89/90/95 90/89/95 96/109/95 95/108/95
f 108/111/93 106/110/93 105/106/93 107/107/93
