# Blender v2.90.1 OBJ File: ''
# www.blender.org
mtllib stair-railing.mtl
o stair-railing_Cube.003
v -0.976479 1.311069 0.175395
v -0.976479 5.467133 -5.726216
v -0.976479 1.212956 0.106302
v -0.976479 5.369020 -5.795310
v -0.856479 1.311069 0.175395
v -0.856479 5.467133 -5.726216
v -0.856479 1.212956 0.106302
v -0.856479 5.369020 -5.795310
v -0.956479 0.173626 0.040000
v -0.956479 1.376653 0.040000
v -0.956479 0.173626 -0.040000
v -0.956479 1.376653 -0.040000
v -0.876478 0.173626 0.040000
v -0.876478 1.376653 0.040000
v -0.876478 0.173626 -0.040000
v -0.876478 1.376653 -0.040000
v -0.956479 0.733034 -0.760001
v -0.956479 1.936061 -0.760001
v -0.956479 0.733034 -0.840001
v -0.956479 1.936061 -0.840001
v -0.876478 0.733034 -0.760001
v -0.876478 1.936061 -0.760001
v -0.876478 0.733034 -0.840001
v -0.876478 1.936061 -0.840001
v -0.956479 1.292442 -1.560002
v -0.956479 2.495469 -1.560002
v -0.956479 1.292442 -1.640002
v -0.956479 2.495469 -1.640002
v -0.876478 1.292442 -1.560002
v -0.876478 2.495469 -1.560002
v -0.876478 1.292442 -1.640002
v -0.876478 2.495469 -1.640002
v -0.956479 1.851849 -2.360003
v -0.956479 3.054876 -2.360003
v -0.956479 1.851849 -2.440003
v -0.956479 3.054877 -2.440003
v -0.876478 1.851849 -2.360003
v -0.876478 3.054876 -2.360003
v -0.876478 1.851849 -2.440003
v -0.876478 3.054877 -2.440003
v -0.956479 2.411257 -3.160004
v -0.956479 3.614284 -3.160004
v -0.956479 2.411257 -3.240005
v -0.956479 3.614284 -3.240004
v -0.876478 2.411257 -3.160004
v -0.876478 3.614284 -3.160004
v -0.876478 2.411257 -3.240005
v -0.876478 3.614284 -3.240004
v -0.956479 2.970664 -3.960005
v -0.956479 4.173692 -3.960006
v -0.956479 2.970664 -4.040006
v -0.956479 4.173692 -4.040006
v -0.876478 2.970664 -3.960005
v -0.876478 4.173692 -3.960006
v -0.876478 2.970664 -4.040006
v -0.876478 4.173692 -4.040006
v -0.956479 3.530072 -4.760007
v -0.956479 4.733099 -4.760006
v -0.956479 3.530072 -4.840007
v -0.956479 4.733099 -4.840007
v -0.876478 3.530072 -4.760007
v -0.876478 4.733099 -4.760006
v -0.876478 3.530072 -4.840007
v -0.876478 4.733099 -4.840007
v -0.956479 4.089480 -5.560008
v -0.956479 5.292507 -5.560008
v -0.956479 4.089480 -5.640007
v -0.956479 5.292507 -5.640008
v -0.876478 4.089480 -5.560008
v -0.876478 5.292507 -5.560008
v -0.876478 4.089480 -5.640007
v -0.876478 5.292507 -5.640008
vt 0.375000 0.000000
vt 0.625000 0.000000
vt 0.625000 0.250000
vt 0.375000 0.250000
vt 0.625000 0.500000
vt 0.375000 0.500000
vt 0.625000 0.750000
vt 0.375000 0.750000
vt 0.625000 1.000000
vt 0.375000 1.000000
vt 0.125000 0.500000
vt 0.125000 0.750000
vt 0.875000 0.500000
vt 0.875000 0.750000
vt 0.375000 0.000000
vt 0.625000 0.000000
vt 0.625000 0.250000
vt 0.375000 0.250000
vt 0.625000 0.500000
vt 0.375000 0.500000
vt 0.625000 0.750000
vt 0.375000 0.750000
vt 0.625000 1.000000
vt 0.375000 1.000000
vt 0.125000 0.500000
vt 0.125000 0.750000
vt 0.875000 0.500000
vt 0.875000 0.750000
vt 0.375000 0.000000
vt 0.625000 0.000000
vt 0.625000 0.250000
vt 0.375000 0.250000
vt 0.625000 0.500000
vt 0.375000 0.500000
vt 0.625000 0.750000
vt 0.375000 0.750000
vt 0.625000 1.000000
vt 0.375000 1.000000
vt 0.125000 0.500000
vt 0.125000 0.750000
vt 0.875000 0.500000
vt 0.875000 0.750000
vt 0.375000 0.000000
vt 0.625000 0.000000
vt 0.625000 0.250000
vt 0.375000 0.250000
vt 0.625000 0.500000
vt 0.375000 0.500000
vt 0.625000 0.750000
vt 0.375000 0.750000
vt 0.625000 1.000000
vt 0.375000 1.000000
vt 0.125000 0.500000
vt 0.125000 0.750000
vt 0.875000 0.500000
vt 0.875000 0.750000
vt 0.375000 0.000000
vt 0.625000 0.000000
vt 0.625000 0.250000
vt 0.375000 0.250000
vt 0.625000 0.500000
vt 0.375000 0.500000
vt 0.625000 0.750000
vt 0.375000 0.750000
vt 0.625000 1.000000
vt 0.375000 1.000000
vt 0.125000 0.500000
vt 0.125000 0.750000
vt 0.875000 0.500000
vt 0.875000 0.750000
vt 0.375000 0.000000
vt 0.625000 0.000000
vt 0.625000 0.250000
vt 0.375000 0.250000
vt 0.625000 0.500000
vt 0.375000 0.500000
vt 0.625000 0.750000
vt 0.375000 0.750000
vt 0.625000 1.000000
vt 0.375000 1.000000
vt 0.125000 0.500000
vt 0.125000 0.750000
vt 0.875000 0.500000
vt 0.875000 0.750000
vt 0.375000 0.000000
vt 0.625000 0.000000
vt 0.625000 0.250000
vt 0.375000 0.250000
vt 0.625000 0.500000
vt 0.375000 0.500000
vt 0.625000 0.750000
vt 0.375000 0.750000
vt 0.625000 1.000000
vt 0.375000 1.000000
vt 0.125000 0.500000
vt 0.125000 0.750000
vt 0.875000 0.500000
vt 0.875000 0.750000
vt 0.375000 0.000000
vt 0.625000 0.000000
vt 0.625000 0.250000
vt 0.375000 0.250000
vt 0.625000 0.500000
vt 0.375000 0.500000
vt 0.625000 0.750000
vt 0.375000 0.750000
vt 0.625000 1.000000
vt 0.375000 1.000000
vt 0.125000 0.500000
vt 0.125000 0.750000
vt 0.875000 0.500000
vt 0.875000 0.750000
vt 0.375000 0.000000
vt 0.625000 0.000000
vt 0.625000 0.250000
vt 0.375000 0.250000
vt 0.625000 0.500000
vt 0.375000 0.500000
vt 0.625000 0.750000
vt 0.375000 0.750000
vt 0.625000 1.000000
vt 0.375000 1.000000
vt 0.125000 0.500000
vt 0.125000 0.750000
vt 0.875000 0.500000
vt 0.875000 0.750000
vn -1.0000 -0.0000 0.0000
vn 0.0000 -0.8176 -0.5758
vn 1.0000 0.0000 0.0000
vn 0.0000 0.8176 0.5758
vn 0.0000 -0.5758 0.8176
vn 0.0000 0.5758 -0.8176
vn 0.0000 -0.0000 -1.0000
vn 0.0000 0.0000 1.0000
vn 0.0000 -1.0000 -0.0000
vn 0.0000 1.0000 0.0000
usemtl Silver
s off
f 1/1/1 2/2/1 4/3/1 3/4/1
f 3/4/2 4/3/2 8/5/2 7/6/2
f 7/6/3 8/5/3 6/7/3 5/8/3
f 5/8/4 6/7/4 2/9/4 1/10/4
f 3/11/5 7/6/5 5/8/5 1/12/5
f 8/5/6 4/13/6 2/14/6 6/7/6
usemtl Black
f 9/15/1 10/16/1 12/17/1 11/18/1
f 11/18/7 12/17/7 16/19/7 15/20/7
f 15/20/3 16/19/3 14/21/3 13/22/3
f 13/22/8 14/21/8 10/23/8 9/24/8
f 11/25/9 15/20/9 13/22/9 9/26/9
f 16/19/10 12/27/10 10/28/10 14/21/10
f 17/29/1 18/30/1 20/31/1 19/32/1
f 19/32/7 20/31/7 24/33/7 23/34/7
f 23/34/3 24/33/3 22/35/3 21/36/3
f 21/36/8 22/35/8 18/37/8 17/38/8
f 19/39/9 23/34/9 21/36/9 17/40/9
f 24/33/10 20/41/10 18/42/10 22/35/10
f 25/43/1 26/44/1 28/45/1 27/46/1
f 27/46/7 28/45/7 32/47/7 31/48/7
f 31/48/3 32/47/3 30/49/3 29/50/3
f 29/50/8 30/49/8 26/51/8 25/52/8
f 27/53/9 31/48/9 29/50/9 25/54/9
f 32/47/10 28/55/10 26/56/10 30/49/10
f 33/57/1 34/58/1 36/59/1 35/60/1
f 35/60/7 36/59/7 40/61/7 39/62/7
f 39/62/3 40/61/3 38/63/3 37/64/3
f 37/64/8 38/63/8 34/65/8 33/66/8
f 35/67/9 39/62/9 37/64/9 33/68/9
f 40/61/10 36/69/10 34/70/10 38/63/10
f 41/71/1 42/72/1 44/73/1 43/74/1
f 43/74/7 44/73/7 48/75/7 47/76/7
f 47/76/3 48/75/3 46/77/3 45/78/3
f 45/78/8 46/77/8 42/79/8 41/80/8
f 43/81/9 47/76/9 45/78/9 41/82/9
f 48/75/10 44/83/10 42/84/10 46/77/10
f 49/85/1 50/86/1 52/87/1 51/88/1
f 51/88/7 52/87/7 56/89/7 55/90/7
f 55/90/3 56/89/3 54/91/3 53/92/3
f 53/92/8 54/91/8 50/93/8 49/94/8
f 51/95/9 55/90/9 53/92/9 49/96/9
f 56/89/10 52/97/10 50/98/10 54/91/10
f 57/99/1 58/100/1 60/101/1 59/102/1
f 59/102/7 60/101/7 64/103/7 63/104/7
f 63/104/3 64/103/3 62/105/3 61/106/3
f 61/106/8 62/105/8 58/107/8 57/108/8
f 59/109/9 63/104/9 61/106/9 57/110/9
f 64/103/10 60/111/10 58/112/10 62/105/10
f 65/113/1 66/114/1 68/115/1 67/116/1
f 67/116/7 68/115/7 72/117/7 71/118/7
f 71/118/3 72/117/3 70/119/3 69/120/3
f 69/120/8 70/119/8 66/121/8 65/122/8
f 67/123/9 71/118/9 69/120/9 65/124/9
f 72/117/10 68/125/10 66/126/10 70/119/10
