# Blender v2.90.1 OBJ File: ''
# www.blender.org
mtllib Bottle.mtl
o Bottle_Circle
v 0.000000 0.000000 -0.050000
v -0.043301 0.000000 -0.025000
v -0.043301 0.000000 0.025000
v 0.000000 0.000000 0.050000
v 0.043301 0.000000 0.025000
v 0.043301 0.000000 -0.025000
v 0.000000 0.008833 -0.059973
v -0.051938 0.008833 -0.029986
v -0.051938 0.008833 0.029986
v 0.000000 0.008833 0.059973
v 0.051938 0.008833 0.029986
v 0.051938 0.008833 -0.029986
v 0.000000 0.132495 -0.059973
v -0.051938 0.132495 -0.029986
v -0.051938 0.132495 0.029986
v 0.000000 0.132495 0.059973
v 0.051938 0.132495 0.029986
v 0.051938 0.132495 -0.029986
v -0.000000 0.161018 -0.048440
v -0.041950 0.161018 -0.024220
v -0.041950 0.161018 0.024220
v 0.000000 0.161018 0.048440
v 0.041950 0.161018 0.024220
v 0.041950 0.161018 -0.024220
v -0.000000 0.306089 -0.034051
v -0.029489 0.306089 -0.017026
v -0.029489 0.306089 0.017026
v -0.000000 0.306089 0.034051
v 0.029489 0.306089 0.017026
v 0.029489 0.306089 -0.017026
v -0.000000 0.314470 -0.045121
v -0.039076 0.314470 -0.022560
v -0.039076 0.314470 0.022560
v -0.000000 0.314470 0.045121
v 0.039076 0.314470 0.022560
v 0.039076 0.314470 -0.022560
v -0.000000 0.326303 -0.045121
v -0.039076 0.326303 -0.022560
v -0.039076 0.326303 0.022560
v -0.000000 0.326303 0.045121
v 0.039076 0.326303 0.022560
v 0.039076 0.326303 -0.022560
v -0.000000 0.326303 -0.035036
v -0.030342 0.326303 -0.017518
v -0.030342 0.326303 0.017518
v -0.000000 0.326303 0.035036
v 0.030342 0.326303 0.017518
v 0.030342 0.326303 -0.017518
v -0.000000 0.336749 -0.039774
v -0.034445 0.336749 -0.019887
v -0.034445 0.336749 0.019887
v -0.000000 0.336749 0.039774
v 0.034445 0.336749 0.019887
v 0.034445 0.336749 -0.019887
v -0.029526 0.180532 -0.017047
v -0.000000 0.180532 -0.034094
v 0.029526 0.180532 -0.017047
v 0.029526 0.180532 0.017047
v -0.000000 0.180532 0.034094
v -0.029526 0.180532 0.017047
vt 0.000000 0.000000
vt 0.000000 0.000000
vt 0.000000 0.000000
vt 0.000000 0.000000
vt 0.000000 0.000000
vt 0.000000 0.000000
vt 0.000000 0.000000
vt 0.000000 0.000000
vt 0.000000 0.000000
vt 0.000000 0.000000
vt 0.000000 0.000000
vt 0.000000 0.000000
vt 0.000000 0.000000
vt 0.000000 0.000000
vt 0.000000 0.000000
vt 0.000000 0.000000
vt 0.000000 0.000000
vt 0.000000 0.000000
vt 0.000000 0.000000
vt 0.000000 0.000000
vt 0.000000 0.000000
vt 0.000000 0.000000
vt 0.000000 0.000000
vt 0.000000 0.000000
vt 0.000000 0.000000
vt 0.000000 0.000000
vt 0.000000 0.000000
vt 0.000000 0.000000
vt 0.000000 0.000000
vt 0.000000 0.000000
vt 0.000000 0.000000
vt 0.000000 0.000000
vt 0.000000 0.000000
vt 0.000000 0.000000
vt 0.000000 0.000000
vt 0.000000 0.000000
vt 0.000000 0.000000
vt 0.000000 0.000000
vt 0.000000 0.000000
vt 0.000000 0.000000
vt 0.000000 0.000000
vt 0.000000 0.000000
vt 0.000000 0.000000
vt 0.000000 0.000000
vt 0.000000 0.000000
vt 0.000000 0.000000
vt 0.000000 0.000000
vt 0.000000 0.000000
vt 0.000000 0.000000
vt 0.000000 0.000000
vt 0.000000 0.000000
vt 0.000000 0.000000
vt 0.000000 0.000000
vt 0.000000 0.000000
vt 0.000000 0.000000
vt 0.000000 0.000000
vt 0.000000 0.000000
vt 0.000000 0.000000
vt 0.000000 0.000000
vt 0.000000 0.000000
vn 0.4654 -0.3656 -0.8061
vn 0.0000 1.0000 0.0000
vn 0.4654 -0.3656 0.8061
vn -0.9308 -0.3656 0.0000
vn 0.9308 -0.3656 0.0000
vn -0.4654 -0.3656 0.8061
vn -0.4654 -0.3656 -0.8061
vn 0.0000 -1.0000 0.0000
vn -0.5000 0.0000 0.8660
vn 0.7150 -0.6991 0.0000
vn -0.3575 -0.6991 0.6192
vn -0.3575 -0.6991 -0.6192
vn 0.3575 -0.6991 -0.6192
vn 0.3575 -0.6991 0.6192
vn -0.7150 -0.6991 0.0000
vn -0.9438 0.3305 0.0000
vn -0.5000 0.0000 -0.8660
vn 0.5000 0.0000 -0.8660
vn 0.5000 0.0000 0.8660
vn -1.0000 0.0000 0.0000
vn 1.0000 0.0000 0.0000
vn -0.5000 0.0003 -0.8660
vn 0.9438 0.3305 0.0000
vn -0.4719 0.3305 0.8174
vn -0.4719 0.3305 -0.8174
vn 0.4719 0.3305 -0.8174
vn 0.4719 0.3305 0.8174
vn 0.6582 -0.7528 0.0000
vn 0.5000 0.0003 -0.8660
vn 0.5000 0.0003 0.8660
vn -1.0000 0.0003 0.0000
vn 1.0000 0.0003 0.0000
vn -0.5000 0.0003 0.8660
vn -0.3291 -0.7528 0.5700
vn -0.3291 -0.7528 -0.5700
vn 0.3291 -0.7528 -0.5700
vn 0.3291 -0.7528 0.5700
vn -0.6582 -0.7528 0.0000
vn -0.4218 0.5371 0.7305
vn 0.8435 0.5371 0.0000
vn -0.8435 0.5371 -0.0000
vn 0.4218 0.5371 0.7305
vn 0.4218 0.5371 -0.7305
vn -0.4218 0.5371 -0.7305
usemtl BrownDark
s off
f 48/1/1 43/2/1 49/3/1 54/4/1
f 50/5/2 51/6/2 52/7/2 53/8/2 54/4/2 49/3/2
f 46/9/3 47/10/3 53/8/3 52/7/3
f 44/11/4 45/12/4 51/6/4 50/5/4
f 47/10/5 48/1/5 54/4/5 53/8/5
f 45/12/6 46/9/6 52/7/6 51/6/6
f 43/2/7 44/11/7 50/5/7 49/3/7
usemtl GreenDark.003
f 2/13/8 1/14/8 6/15/8 5/16/8 4/17/8 3/18/8
f 9/19/9 10/20/9 16/21/9 15/22/9
f 5/16/10 6/15/10 12/23/10 11/24/10
f 3/18/11 4/17/11 10/20/11 9/19/11
f 1/14/12 2/13/12 8/25/12 7/26/12
f 6/15/13 1/14/13 7/26/13 12/23/13
f 4/17/14 5/16/14 11/24/14 10/20/14
f 2/13/15 3/18/15 9/19/15 8/25/15
f 14/27/16 15/22/16 21/28/16 20/29/16
f 7/26/17 8/25/17 14/27/17 13/30/17
f 12/23/18 7/26/18 13/30/18 18/31/18
f 10/20/19 11/24/19 17/32/19 16/21/19
f 8/25/20 9/19/20 15/22/20 14/27/20
f 11/24/21 12/23/21 18/31/21 17/32/21
f 56/33/22 55/34/22 26/35/22 25/36/22
f 17/32/23 18/31/23 24/37/23 23/38/23
f 15/22/24 16/21/24 22/39/24 21/28/24
f 13/30/25 14/27/25 20/29/25 19/40/25
f 18/31/26 13/30/26 19/40/26 24/37/26
f 16/21/27 17/32/27 23/38/27 22/39/27
f 29/41/28 30/42/28 36/43/28 35/44/28
f 57/45/29 56/33/29 25/36/29 30/42/29
f 59/46/30 58/47/30 29/41/30 28/48/30
f 55/34/31 60/49/31 27/50/31 26/35/31
f 58/47/32 57/45/32 30/42/32 29/41/32
f 60/49/33 59/46/33 28/48/33 27/50/33
f 36/43/18 31/51/18 37/52/18 42/53/18
f 27/50/34 28/48/34 34/54/34 33/55/34
f 25/36/35 26/35/35 32/56/35 31/51/35
f 30/42/36 25/36/36 31/51/36 36/43/36
f 28/48/37 29/41/37 35/44/37 34/54/37
f 26/35/38 27/50/38 33/55/38 32/56/38
f 41/57/2 42/53/2 48/1/2 47/10/2
f 34/54/19 35/44/19 41/57/19 40/58/19
f 32/56/20 33/55/20 39/59/20 38/60/20
f 35/44/21 36/43/21 42/53/21 41/57/21
f 33/55/9 34/54/9 40/58/9 39/59/9
f 31/51/17 32/56/17 38/60/17 37/52/17
f 39/59/2 40/58/2 46/9/2 45/12/2
f 37/52/2 38/60/2 44/11/2 43/2/2
f 42/53/2 37/52/2 43/2/2 48/1/2
f 40/58/2 41/57/2 47/10/2 46/9/2
f 38/60/2 39/59/2 45/12/2 44/11/2
f 21/28/39 22/39/39 59/46/39 60/49/39
f 23/38/40 24/37/40 57/45/40 58/47/40
f 20/29/41 21/28/41 60/49/41 55/34/41
f 22/39/42 23/38/42 58/47/42 59/46/42
f 24/37/43 19/40/43 56/33/43 57/45/43
f 19/40/44 20/29/44 55/34/44 56/33/44
