# Blender v2.90.1 OBJ File: 'canvasBig.blend'
# www.blender.org
mtllib canvasBig.mtl
o Canvas_Cube.001
v 0.020833 -1.000000 1.000000
v 0.020833 1.000000 1.000000
v 0.020833 -1.000000 -1.000000
v 0.020833 1.000000 -1.000000
v -0.020833 -0.913131 0.913131
v -0.020833 0.913131 0.913131
v -0.020833 -0.913131 -0.913131
v -0.020833 0.913131 -0.913131
v -0.020833 1.000000 -1.000000
v -0.020833 -1.000000 -1.000000
v -0.020833 -1.000000 1.000000
v -0.020833 1.000000 1.000000
v 0.009540 0.913131 -0.913131
v 0.009540 -0.913131 -0.913131
v 0.009540 -0.913131 0.913131
v 0.009540 0.913131 0.913131
v -0.020833 0.913131 0.913131
v -0.020833 0.913131 -0.913131
v -0.020833 1.000000 -1.000000
v -0.020833 1.000000 1.000000
vt 0.614141 0.739141
vt 0.614141 0.739141
vt 0.385859 0.739141
vt 0.385859 0.739141
vt 0.614141 0.510859
vt 0.625000 0.500000
vt 0.375000 0.500000
vt 0.385859 0.510859
vt 0.375000 0.750000
vt 0.625000 0.750000
vt 0.385859 0.510859
vt 0.614141 0.510859
vt 0.614141 0.739141
vt 0.614141 0.510859
vt 0.625000 0.750000
vt 0.625000 0.500000
vt 0.375000 0.000000
vt 0.375000 0.250000
vt 0.625000 0.250000
vt 0.625000 0.000000
vt 0.375000 1.000000
vt 0.625000 1.000000
vt 0.125000 0.500000
vt 0.125000 0.750000
vt 0.875000 0.750000
vt 0.875000 0.500000
vn 0.0000 0.0000 -1.0000
vn -1.0000 0.0000 0.0000
vn 0.0000 1.0000 0.0000
vn 0.0000 -1.0000 0.0000
vn 0.0000 0.0000 1.0000
vn 1.0000 0.0000 0.0000
usemtl Wood
s off
f 6/1/1 16/2/1 15/3/1 5/4/1
f 8/5/2 9/6/2 10/7/2 7/8/2
f 7/8/2 10/7/2 11/9/2 5/4/2
f 6/1/2 12/10/2 9/6/2 8/5/2
f 5/4/2 11/9/2 12/10/2 6/1/2
f 5/4/3 15/3/3 14/11/3 7/8/3
f 8/5/4 13/12/4 16/2/4 6/1/4
f 7/8/5 14/11/5 13/12/5 8/5/5
f 6/1/5 17/13/5 18/14/5 8/5/5
f 12/10/5 20/15/5 19/16/5 9/6/5
usemtl Canvas
f 1/17/6 3/18/6 4/19/6 2/20/6
f 3/18/1 10/7/1 9/6/1 4/19/1
f 11/9/5 1/21/5 2/22/5 12/10/5
f 3/23/4 1/24/4 11/9/4 10/7/4
f 9/6/3 12/10/3 2/25/3 4/26/3
f 14/11/2 15/3/2 16/2/2 13/12/2
